<svg width="28" height="28" viewBox="0 0 28 28" fill="none" xmlns="http://www.w3.org/2000/svg">
<path d="M15.5 14C15.5 13.1716 14.8284 12.5 14 12.5C13.1716 12.5 12.5 13.1716 12.5 14C12.5 14.8284 13.1716 15.5 14 15.5C14.8284 15.5 15.5 14.8284 15.5 14Z" fill="#6B7080"/>
<path d="M9.5 14C9.5 13.1716 8.82843 12.5 8 12.5C7.17157 12.5 6.5 13.1716 6.5 14C6.5 14.8284 7.17157 15.5 8 15.5C8.82843 15.5 9.5 14.8284 9.5 14Z" fill="#6B7080"/>
<path d="M21.5 14C21.5 13.1716 20.8284 12.5 20 12.5C19.1716 12.5 18.5 13.1716 18.5 14C18.5 14.8284 19.1716 15.5 20 15.5C20.8284 15.5 21.5 14.8284 21.5 14Z" fill="#6B7080"/>
</svg>
